<?xml version="1.0" encoding="UTF-8" standalone="no"?>
<!DOCTYPE svg PUBLIC "-//W3C//DTD SVG 1.1//EN"
 "http://www.w3.org/Graphics/SVG/1.1/DTD/svg11.dtd">
<!-- Generated by graphviz version 2.43.0 (0)
 -->
<!-- Title: %3 Pages: 1 -->
<svg width="875pt" height="46pt"
 viewBox="0.00 0.00 875.00 46.00" xmlns="http://www.w3.org/2000/svg" xmlns:xlink="http://www.w3.org/1999/xlink">
<g id="graph0" class="graph" transform="scale(1 1) rotate(0) translate(4 42)">
<title>%3</title>
<polygon fill="white" stroke="transparent" points="-4,4 -4,-42 871,-42 871,4 -4,4"/>
<!-- InputSet -->
<g id="node1" class="node">
<title>InputSet</title>
<polygon fill="none" stroke="black" points="98,-38 0,-38 0,0 98,0 98,-38"/>
<text text-anchor="middle" x="49" y="-22.8" font-family="Times,serif" font-size="14.00">INPUT SET</text>
<text text-anchor="middle" x="49" y="-7.8" font-family="Times,serif" font-size="14.00">Size: 1206</text>
</g>
<!-- FilterOperator_0_0_0 -->
<g id="node3" class="node">
<title>FilterOperator_0_0_0</title>
<polygon fill="none" stroke="black" points="320,-38 134,-38 134,0 320,0 320,-38"/>
<text text-anchor="middle" x="227" y="-22.8" font-family="Times,serif" font-size="14.00">2021 &lt;= year &lt;= 2025</text>
<text text-anchor="middle" x="227" y="-7.8" font-family="Times,serif" font-size="14.00">Size: 460</text>
</g>
<!-- InputSet&#45;&gt;FilterOperator_0_0_0 -->
<g id="edge1" class="edge">
<title>InputSet&#45;&gt;FilterOperator_0_0_0</title>
<path fill="none" stroke="black" d="M98.09,-19C106.23,-19 114.94,-19 123.85,-19"/>
<polygon fill="black" stroke="black" points="123.97,-22.5 133.97,-19 123.97,-15.5 123.97,-22.5"/>
</g>
<!-- OutputSet -->
<g id="node2" class="node">
<title>OutputSet</title>
<polygon fill="none" stroke="black" points="867,-38 754,-38 754,0 867,0 867,-38"/>
<text text-anchor="middle" x="810.5" y="-22.8" font-family="Times,serif" font-size="14.00">OUTPUT SET</text>
<text text-anchor="middle" x="810.5" y="-7.8" font-family="Times,serif" font-size="14.00">Size: 65</text>
</g>
<!-- FilterOperator_0_0_1 -->
<g id="node4" class="node">
<title>FilterOperator_0_0_1</title>
<polygon fill="none" stroke="black" points="476,-38 356,-38 356,0 476,0 476,-38"/>
<text text-anchor="middle" x="416" y="-22.8" font-family="Times,serif" font-size="14.00">numPages &gt; 6</text>
<text text-anchor="middle" x="416" y="-7.8" font-family="Times,serif" font-size="14.00">Size: 192</text>
</g>
<!-- FilterOperator_0_0_0&#45;&gt;FilterOperator_0_0_1 -->
<g id="edge2" class="edge">
<title>FilterOperator_0_0_0&#45;&gt;FilterOperator_0_0_1</title>
<path fill="none" stroke="black" d="M320.13,-19C328.78,-19 337.45,-19 345.84,-19"/>
<polygon fill="black" stroke="black" points="345.91,-22.5 355.91,-19 345.91,-15.5 345.91,-22.5"/>
</g>
<!-- RandomSelectionOperator_0_0_2 -->
<g id="node5" class="node">
<title>RandomSelectionOperator_0_0_2</title>
<polygon fill="none" stroke="black" points="718,-38 512,-38 512,0 718,0 718,-38"/>
<text text-anchor="middle" x="615" y="-22.8" font-family="Times,serif" font-size="14.00">RandomSelectionOperator</text>
<text text-anchor="middle" x="615" y="-7.8" font-family="Times,serif" font-size="14.00">Size: 65</text>
</g>
<!-- FilterOperator_0_0_1&#45;&gt;RandomSelectionOperator_0_0_2 -->
<g id="edge3" class="edge">
<title>FilterOperator_0_0_1&#45;&gt;RandomSelectionOperator_0_0_2</title>
<path fill="none" stroke="black" d="M476.11,-19C484.34,-19 493.02,-19 501.84,-19"/>
<polygon fill="black" stroke="black" points="501.85,-22.5 511.85,-19 501.85,-15.5 501.85,-22.5"/>
</g>
<!-- RandomSelectionOperator_0_0_2&#45;&gt;OutputSet -->
<g id="edge4" class="edge">
<title>RandomSelectionOperator_0_0_2&#45;&gt;OutputSet</title>
<path fill="none" stroke="black" d="M718.13,-19C726.76,-19 735.32,-19 743.56,-19"/>
<polygon fill="black" stroke="black" points="743.79,-22.5 753.79,-19 743.79,-15.5 743.79,-22.5"/>
</g>
</g>
</svg>
