<?xml version="1.0" encoding="UTF-8" standalone="no"?>
<!DOCTYPE svg PUBLIC "-//W3C//DTD SVG 1.1//EN"
 "http://www.w3.org/Graphics/SVG/1.1/DTD/svg11.dtd">
<!-- Generated by graphviz version 2.43.0 (0)
 -->
<!-- Title: %3 Pages: 1 -->
<svg width="782pt" height="61pt"
 viewBox="0.00 0.00 782.00 61.00" xmlns="http://www.w3.org/2000/svg" xmlns:xlink="http://www.w3.org/1999/xlink">
<g id="graph0" class="graph" transform="scale(1 1) rotate(0) translate(4 57)">
<title>%3</title>
<polygon fill="white" stroke="transparent" points="-4,4 -4,-57 778,-57 778,4 -4,4"/>
<!-- InputSet -->
<g id="node1" class="node">
<title>InputSet</title>
<polygon fill="none" stroke="black" points="98,-45.5 0,-45.5 0,-7.5 98,-7.5 98,-45.5"/>
<text text-anchor="middle" x="49" y="-30.3" font-family="Times,serif" font-size="14.00">INPUT SET</text>
<text text-anchor="middle" x="49" y="-15.3" font-family="Times,serif" font-size="14.00">Size : 1206</text>
</g>
<!-- FilterOperator_0_0_0 -->
<g id="node2" class="node">
<title>FilterOperator_0_0_0</title>
<polygon fill="none" stroke="black" points="320,-53 134,-53 134,0 320,0 320,-53"/>
<text text-anchor="middle" x="227" y="-37.8" font-family="Times,serif" font-size="14.00">Filter Operator</text>
<text text-anchor="middle" x="227" y="-22.8" font-family="Times,serif" font-size="14.00">2021 &lt;= year &lt;= 2025</text>
<text text-anchor="middle" x="227" y="-7.8" font-family="Times,serif" font-size="14.00">Size : 460</text>
</g>
<!-- InputSet&#45;&gt;FilterOperator_0_0_0 -->
<g id="edge1" class="edge">
<title>InputSet&#45;&gt;FilterOperator_0_0_0</title>
<path fill="none" stroke="black" d="M98.09,-26.5C106.23,-26.5 114.94,-26.5 123.85,-26.5"/>
<polygon fill="black" stroke="black" points="123.97,-30 133.97,-26.5 123.97,-23 123.97,-30"/>
</g>
<!-- FilterOperator_0_0_1 -->
<g id="node3" class="node">
<title>FilterOperator_0_0_1</title>
<polygon fill="none" stroke="black" points="481,-53 356,-53 356,0 481,0 481,-53"/>
<text text-anchor="middle" x="418.5" y="-37.8" font-family="Times,serif" font-size="14.00">Filter Operator</text>
<text text-anchor="middle" x="418.5" y="-22.8" font-family="Times,serif" font-size="14.00">numPages &gt; 6</text>
<text text-anchor="middle" x="418.5" y="-7.8" font-family="Times,serif" font-size="14.00">Size : 192</text>
</g>
<!-- FilterOperator_0_0_0&#45;&gt;FilterOperator_0_0_1 -->
<g id="edge2" class="edge">
<title>FilterOperator_0_0_0&#45;&gt;FilterOperator_0_0_1</title>
<path fill="none" stroke="black" d="M320.25,-26.5C328.82,-26.5 337.41,-26.5 345.75,-26.5"/>
<polygon fill="black" stroke="black" points="345.78,-30 355.78,-26.5 345.78,-23 345.78,-30"/>
</g>
<!-- RandomSelectionOperator_0_0_2 -->
<g id="node4" class="node">
<title>RandomSelectionOperator_0_0_2</title>
<polygon fill="none" stroke="black" points="658,-53 517,-53 517,0 658,0 658,-53"/>
<text text-anchor="middle" x="587.5" y="-37.8" font-family="Times,serif" font-size="14.00">RandomSelection</text>
<text text-anchor="middle" x="587.5" y="-22.8" font-family="Times,serif" font-size="14.00">Operator</text>
<text text-anchor="middle" x="587.5" y="-7.8" font-family="Times,serif" font-size="14.00">Size : 65</text>
</g>
<!-- FilterOperator_0_0_1&#45;&gt;RandomSelectionOperator_0_0_2 -->
<g id="edge3" class="edge">
<title>FilterOperator_0_0_1&#45;&gt;RandomSelectionOperator_0_0_2</title>
<path fill="none" stroke="black" d="M481.21,-26.5C489.56,-26.5 498.22,-26.5 506.82,-26.5"/>
<polygon fill="black" stroke="black" points="506.88,-30 516.88,-26.5 506.88,-23 506.88,-30"/>
</g>
<!-- OutputSet -->
<g id="node5" class="node">
<title>OutputSet</title>
<polygon fill="none" stroke="black" points="774,-45.5 694,-45.5 694,-7.5 774,-7.5 774,-45.5"/>
<text text-anchor="middle" x="734" y="-30.3" font-family="Times,serif" font-size="14.00">SAMPLE</text>
<text text-anchor="middle" x="734" y="-15.3" font-family="Times,serif" font-size="14.00">Size : 65</text>
</g>
<!-- RandomSelectionOperator_0_0_2&#45;&gt;OutputSet -->
<g id="edge4" class="edge">
<title>RandomSelectionOperator_0_0_2&#45;&gt;OutputSet</title>
<path fill="none" stroke="black" d="M658.21,-26.5C666.84,-26.5 675.51,-26.5 683.74,-26.5"/>
<polygon fill="black" stroke="black" points="683.89,-30 693.89,-26.5 683.89,-23 683.89,-30"/>
</g>
</g>
</svg>
